<?xml version="1.0" encoding="UTF-8" standalone="no"?>
<!DOCTYPE svg PUBLIC "-//W3C//DTD SVG 1.1//EN" "http://www.w3.org/Graphics/SVG/1.1/DTD/svg11.dtd">
<svg version="1.1" xmlns="http://www.w3.org/2000/svg" xmlns:xlink="http://www.w3.org/1999/xlink" preserveAspectRatio="xMidYMid meet" viewBox="0 0 640 640" width="640" height="640"><defs><path d="M498.53 289.63C493.7 303.15 455.05 411.38 450.22 424.9C449.81 426.06 448.26 426.25 447.57 425.24C443 418.53 406.51 364.86 401.95 358.15C401.17 357 399.38 357.44 399.22 358.81C397.86 370.33 387.02 462.52 385.66 474.04C385.49 475.49 383.57 475.87 382.87 474.59C376.39 462.89 324.61 369.23 318.13 357.52C317.53 356.42 315.93 356.51 315.44 357.66C311.16 367.76 276.85 448.55 272.56 458.64C272.09 459.74 270.6 459.88 269.94 458.89C265.71 452.62 231.91 402.46 227.68 396.19C227.05 395.26 225.67 395.32 225.13 396.3C223.24 399.69 208.15 426.85 206.27 430.24C205.61 431.42 203.85 431.2 203.51 429.9C198.99 412.76 162.85 275.65 158.34 258.51C157.45 255.13 152.63 255.19 151.82 258.59C146.62 280.49 105 455.75 99.8 477.65C99.66 478.27 99.91 478.9 100.44 479.25C124.16 494.87 313.92 619.84 337.64 635.46C338.16 635.8 338.84 635.78 339.34 635.42C360.16 620.39 526.67 500.12 547.49 485.09C547.98 484.73 548.21 484.11 548.06 483.52C538.73 444.77 506.06 309.15 501.4 289.78C501.05 288.33 499.03 288.23 498.53 289.63Z" id="a42q1QfoiW"></path><path d="M498.53 289.63C493.7 303.15 455.05 411.38 450.22 424.9C449.81 426.06 448.26 426.25 447.57 425.24C443 418.53 406.51 364.86 401.95 358.15C401.17 357 399.38 357.44 399.22 358.81C397.86 370.33 387.02 462.52 385.66 474.04C385.49 475.49 383.57 475.87 382.87 474.59C376.39 462.89 324.61 369.23 318.13 357.52C317.53 356.42 315.93 356.51 315.44 357.66C311.16 367.76 276.85 448.55 272.56 458.64C272.09 459.74 270.6 459.88 269.94 458.89C265.71 452.62 231.91 402.46 227.68 396.19C227.05 395.26 225.67 395.32 225.13 396.3C223.24 399.69 208.15 426.85 206.27 430.24C205.61 431.42 203.85 431.2 203.51 429.9C198.99 412.76 162.85 275.65 158.34 258.51C157.45 255.13 152.63 255.19 151.82 258.59C146.62 280.49 105 455.75 99.8 477.65C99.66 478.27 99.91 478.9 100.44 479.25C124.16 494.87 313.92 619.84 337.64 635.46C338.16 635.8 338.84 635.78 339.34 635.42C360.16 620.39 526.67 500.12 547.49 485.09C547.98 484.73 548.21 484.11 548.06 483.52C538.73 444.77 506.06 309.15 501.4 289.78C501.05 288.33 499.03 288.23 498.53 289.63Z" id="c5hRshaIP"></path><path d="M267.83 417.47L307.17 316.94L368.36 405.82L384.39 327.14L422.27 344.63C428.39 269.45 431.79 227.68 432.47 219.33C496.72 217.66 532.41 216.73 539.55 216.54C542.11 216.48 543.88 213.98 543.12 211.53C540.79 204.18 529.16 167.44 508.24 101.31C503.77 101.41 481.43 101.89 441.22 102.77L419.36 47.4L225.58 3.7L205.18 66.35L106.11 89.66L94.46 168.33L205.18 242.64L209.56 369.4L231.41 347.54L267.83 417.47ZM448.5 185.82C440.36 185.53 375.23 183.2 367.08 182.91C363.05 182.91 361.45 177.7 364.78 175.42C376.28 167.6 416.52 140.2 422.27 136.28C436.92 146.37 445.66 164.83 448.5 185.82ZM323.2 212.04L356.71 255.75L308.63 261.58L323.2 212.04ZM266.38 212.04C239.02 212.04 216.84 189.87 216.84 162.51C216.84 135.15 239.02 112.97 266.38 112.97C293.74 112.97 315.92 135.15 315.92 162.51C315.92 189.87 293.74 212.04 266.38 212.04Z" id="e1bfOCKfBP"></path><path d="M267.83 417.47L307.17 316.94L368.36 405.82L384.39 327.14L422.27 344.63C428.39 269.45 431.79 227.68 432.47 219.33C496.72 217.66 532.41 216.73 539.55 216.54C542.11 216.48 543.88 213.98 543.12 211.53C540.79 204.18 529.16 167.44 508.24 101.31C503.77 101.41 481.43 101.89 441.22 102.77L419.36 47.4L225.58 3.7L205.18 66.35L106.11 89.66L94.46 168.33L205.18 242.64L209.56 369.4L231.41 347.54L267.83 417.47ZM448.5 185.82C440.36 185.53 375.23 183.2 367.08 182.91C363.05 182.91 361.45 177.7 364.78 175.42C376.28 167.6 416.52 140.2 422.27 136.28C436.92 146.37 445.66 164.83 448.5 185.82ZM323.2 212.04L356.71 255.75L308.63 261.58L323.2 212.04ZM266.38 212.04C239.02 212.04 216.84 189.87 216.84 162.51C216.84 135.15 239.02 112.97 266.38 112.97C293.74 112.97 315.92 135.15 315.92 162.51C315.92 189.87 293.74 212.04 266.38 212.04Z" id="a4kXUVpjM7"></path></defs><g><g><g><use xlink:href="#a42q1QfoiW" opacity="1" fill="#19aa9e" fill-opacity="1"></use><g><use xlink:href="#a42q1QfoiW" opacity="1" fill-opacity="0" stroke="#000000" stroke-width="1" stroke-opacity="0"></use></g></g><g><use xlink:href="#c5hRshaIP" opacity="1" fill="#19aa9e" fill-opacity="1"></use><g><use xlink:href="#c5hRshaIP" opacity="1" fill-opacity="0" stroke="#000000" stroke-width="1" stroke-opacity="0"></use></g></g><g><use xlink:href="#e1bfOCKfBP" opacity="1" fill="#19aa9e" fill-opacity="1"></use><g><use xlink:href="#e1bfOCKfBP" opacity="1" fill-opacity="0" stroke="#000000" stroke-width="1" stroke-opacity="0"></use></g></g><g><use xlink:href="#a4kXUVpjM7" opacity="1" fill="#19aa9e" fill-opacity="1"></use><g><use xlink:href="#a4kXUVpjM7" opacity="1" fill-opacity="0" stroke="#000000" stroke-width="1" stroke-opacity="0"></use></g></g></g></g></svg>