<?xml version="1.0" encoding="UTF-8" standalone="no"?>
<!DOCTYPE svg PUBLIC "-//W3C//DTD SVG 1.1//EN" "http://www.w3.org/Graphics/SVG/1.1/DTD/svg11.dtd">
<svg version="1.1" xmlns="http://www.w3.org/2000/svg" xmlns:xlink="http://www.w3.org/1999/xlink" preserveAspectRatio="xMidYMid meet" viewBox="0 0 640 640" width="640" height="640"><defs><path d="M257.04 630.98L412.52 630.98L508.87 208.35L392.08 25.87L246.82 25.87L125.58 220.03L257.04 630.98Z" id="f4V9oHtCJL"></path><path d="M320 205.52C289.32 205.52 264.45 230.39 264.45 261.07C264.45 291.76 289.32 316.63 320 316.63C350.68 316.63 375.55 291.76 375.55 261.07C375.55 230.39 350.68 205.52 320 205.52Z" id="k1q8cO9rXc"></path><path d="M244.19 25.87L122.98 221.9L227.04 642.19L412.96 642.19L517.02 221.9L395.74 25.87L244.19 25.87ZM422.62 398.09C384.38 359.85 363.13 338.6 358.88 334.35C351.84 338.13 344.22 340.94 336.16 342.54C336.16 359.22 336.16 442.61 336.16 592.72L302.82 592.72C302.82 442.46 302.82 358.98 302.82 342.29C295.07 340.62 287.71 337.87 280.93 334.16C276.67 338.42 255.38 359.73 217.06 398.09L193.5 374.54C230.68 337.37 251.33 316.72 255.46 312.59C247.78 302.8 242.34 291.15 239.78 278.48C235.49 278.48 214.07 278.48 175.52 278.48L175.52 245.13C214.19 245.13 235.67 245.13 239.97 245.13C246.69 213.71 271.39 189.01 302.82 182.29C302.82 179.6 302.82 158.09 302.82 155.41C265.89 147.53 238.18 114.7 238.18 75.41C240.8 75.41 261.79 75.41 264.42 75.41C264.42 106.13 289.31 130.96 319.97 130.96C350.62 130.96 375.52 106.06 375.52 75.41C378.14 75.41 399.14 75.41 401.76 75.41C401.76 115.09 373.54 148.11 336.1 155.66C336.1 158.3 336.1 179.39 336.1 182.03C367.97 188.43 393.18 213.33 399.97 245.07C404.47 245.07 426.98 245.07 467.49 245.07L467.49 278.41C427.13 278.41 404.71 278.41 400.22 278.41C397.66 291.15 392.16 302.86 384.42 312.72C388.53 316.84 409.12 337.45 446.18 374.54L422.62 398.09Z" id="abPsFLfoI"></path></defs><g><g><g><use xlink:href="#f4V9oHtCJL" opacity="1" fill="#77ab0c" fill-opacity="1"></use><g><use xlink:href="#f4V9oHtCJL" opacity="1" fill-opacity="0" stroke="#532525" stroke-width="1" stroke-opacity="0"></use></g></g><g><use xlink:href="#k1q8cO9rXc" opacity="1" fill="#000000" fill-opacity="1"></use><g><use xlink:href="#k1q8cO9rXc" opacity="1" fill-opacity="0" stroke="#000000" stroke-width="1" stroke-opacity="0"></use></g></g><g><use xlink:href="#abPsFLfoI" opacity="1" fill="#000000" fill-opacity="1"></use><g><use xlink:href="#abPsFLfoI" opacity="1" fill-opacity="0" stroke="#000000" stroke-width="1" stroke-opacity="1"></use></g></g></g></g></svg>