<?xml version="1.0" encoding="UTF-8" standalone="no"?>
<!DOCTYPE svg PUBLIC "-//W3C//DTD SVG 1.1//EN" "http://www.w3.org/Graphics/SVG/1.1/DTD/svg11.dtd">
<svg version="1.1" xmlns="http://www.w3.org/2000/svg" xmlns:xlink="http://www.w3.org/1999/xlink" preserveAspectRatio="xMidYMid meet" viewBox="0 0 640 640" width="640" height="640"><defs><path d="M461.82 173.68C462.33 173.57 466.34 172.75 466.84 172.65C457.24 149.89 448.03 129.97 439.92 118.07C440.47 117.9 444.88 116.47 445.43 116.29C432.61 93.88 419.67 71.83 403.56 58.91C402.52 56.74 405.16 55.01 410.3 53.6C396.52 40.04 381.36 29 364.44 21.23C380.73 46.48 392.19 70.39 399.1 94.22C399.48 93.64 399.94 93.25 400.49 93.07C403.49 92.09 408.06 97.83 410.69 105.89C413.32 113.96 413.01 121.29 410 122.27C408.48 122.76 406.56 121.54 404.7 119.17C409.62 150.28 407.03 181.98 397.56 216.97C424.66 193.09 410.98 215.51 407.94 232.48C415.53 221.77 421.17 220.61 426.34 223.46C426.34 223.46 437.93 232.19 422.34 248.46C379.3 274.31 404.49 244.29 404.49 244.29C379.06 248.98 362.79 237.91 349.69 232.05C360.04 241.62 366.46 251.16 365.91 260.08C365.29 260.05 360.33 259.84 359.71 259.81C344.08 221.7 331.56 180.51 320 140.16C316.55 169.11 312.33 196.06 307.39 221.17C308.78 219.62 310.33 218.82 311.8 219.11C315.09 219.76 316.7 225.63 315.4 232.22C314.09 238.8 310.37 243.62 307.08 242.97C305.53 242.66 304.36 241.2 303.68 239.05C300.2 254.98 296.43 270.11 292.36 284.51C291.48 284.73 284.4 286.5 283.52 286.72C281.19 278.09 285.55 267.46 293.76 256C282.11 264.38 268.41 278.5 242.56 279.04C242.56 279.04 273.28 303.36 225.92 286.72C207.36 273.92 216.96 263.04 216.96 263.04C221.44 259.2 227.2 259.2 236.8 268.16C230.4 252.16 212.48 232.96 243.84 250.88C227.5 218.52 218.57 188 217.12 156.53C215.77 159.23 214.14 160.82 212.54 160.64C209.4 160.29 207.62 153.16 208.56 144.74C209.51 136.31 212.83 129.76 215.97 130.11C216.55 130.18 217.08 130.47 217.56 130.96C219.53 106.23 225.93 80.49 236.8 52.48C221.79 63.51 209.17 77.38 198.4 93.44C203.72 93.79 206.66 94.94 206.08 97.28C192.91 113.18 184.68 137.38 176.64 161.92C177.22 161.98 181.82 162.5 182.4 162.56C176.86 175.85 171.85 197.21 167.04 221.44C167.55 221.44 171.65 221.44 172.16 221.44C168.99 236.12 167.92 263.12 167.04 291.2C167.74 290.56 173.38 285.44 174.08 284.8C177.73 321.47 188.16 366.08 213.76 412.8C199.68 354.56 223.36 334.72 252.16 328.96C262.94 333.65 267.11 341.99 269.14 351.75C264.54 362.73 259.72 373.13 254.69 383C255.61 382.73 256.49 382.75 257.27 383.08C260.34 384.44 260.69 390.39 258.05 396.37C255.4 402.36 250.78 406.11 247.71 404.75C246.31 404.13 245.48 402.56 245.24 400.47C228.36 429.87 209.43 453.92 188.8 473.6C215.21 455.87 241.87 440.95 268.8 429.16C268.77 429.13 268.74 429.1 268.72 429.07C266.92 426.23 269.94 421.09 275.46 417.59C280.99 414.08 286.92 413.54 288.72 416.37C289.51 417.63 289.36 419.33 288.48 421.14C299.35 417.03 310.27 413.45 321.24 410.4C331.48 415.73 338.04 444.44 315.52 432C318.92 446.89 318.75 460.17 315.52 472.32C318.25 473.19 320.67 474.34 322.8 475.76C299.62 491.68 281.76 496.99 264.32 487.04C271.59 516.25 254.5 550.76 232.96 586.24C250.49 566.37 267.96 547.71 285.38 531.88C284.55 531.81 283.9 531.55 283.49 531.05C281.53 528.63 285.82 521.88 293.09 515.97C300.35 510.06 307.83 507.23 309.8 509.64C310.16 510.08 310.3 510.66 310.27 511.36C318 505.69 325.73 500.72 333.44 496.64C333.84 496.48 334.25 496.44 334.64 496.51C335.12 499.75 335.3 503.27 335.2 507.03C322.3 542.25 298.87 580.06 271.36 618.88C327.54 562.28 381.19 512.63 427.52 476.8C406.66 487.99 387.73 495.32 372.86 495.74C362.43 493.82 356.29 488.83 354.56 480.64C358.04 466.56 368 460.8 368 475.52C381.79 456.92 391.45 456.24 397.44 471.04C399.68 464.51 417.6 412.29 419.84 405.76C396.56 434.22 375.39 450.83 358.4 437.76C345.6 440.96 341.12 428.16 357.76 424.32C342.42 420.49 372.4 403.88 387.78 398.75C387.81 398.75 387.86 398.74 387.9 398.73C386.27 397.78 385.28 396.55 385.28 395.2C385.28 392.2 390.15 389.76 396.16 389.76C402.17 389.76 407.04 392.2 407.04 395.2C407.04 396.22 406.47 397.16 405.5 397.98C426.11 397.66 446.88 399.36 467.84 403.2C460.93 399.17 454.35 394.68 448.06 389.77C448.12 391.05 447.79 392.16 447.01 392.93C444.81 395.14 439.87 393.79 436 389.92C432.13 386.05 430.78 381.11 432.99 378.91C433.38 378.51 433.86 378.23 434.41 378.06C427.07 371.15 420.15 363.64 413.65 355.6C413.54 356.06 413.33 356.45 413.01 356.75C411.46 358.19 407.96 356.95 405.19 353.96C402.43 350.99 401.44 347.4 403 345.96C403.67 345.33 404.71 345.22 405.9 345.52C401.54 339.56 397.36 333.34 393.36 326.92C392.47 314.57 393.63 303.23 405.16 295.12C434.53 294.95 461.72 309.61 459.68 369.49C475.33 318.57 476.54 272.77 472.72 236.12C474.36 237.09 480.09 240.49 480.91 240.97C474.38 213.65 467.88 187.42 461.82 173.68ZM353.17 369.96C353.04 369.45 353.04 368.91 353.13 368.37C329.31 372.42 305.65 380.54 283.52 392.32C304.24 350.94 319.2 303.24 328.96 254.72C335.26 271.83 342.71 289.48 351.39 306.48C351.62 306.18 351.88 305.92 352.2 305.73C354.27 304.54 357.58 306.44 359.62 309.96C361.65 313.48 361.63 317.3 359.57 318.49C359.1 318.76 358.57 318.87 358 318.84C367.49 335.81 378.27 351.78 390.4 365.44C385.03 365.36 379.63 365.52 374.21 365.88C373.9 368.84 370.23 371.97 365.2 373.27C359.42 374.76 354.03 373.29 353.17 369.96Z" id="b2JXZCpiXG"></path><path d="M461.82 173.68C462.33 173.57 466.34 172.75 466.84 172.65C457.24 149.89 448.03 129.97 439.92 118.07C440.47 117.9 444.88 116.47 445.43 116.29C432.61 93.88 419.67 71.83 403.56 58.91C402.52 56.74 405.16 55.01 410.3 53.6C396.52 40.04 381.36 29 364.44 21.23C380.73 46.48 392.19 70.39 399.1 94.22C399.48 93.64 399.94 93.25 400.49 93.07C403.49 92.09 408.06 97.83 410.69 105.89C413.32 113.96 413.01 121.29 410 122.27C408.48 122.76 406.56 121.54 404.7 119.17C409.62 150.28 407.03 181.98 397.56 216.97C424.66 193.09 410.98 215.51 407.94 232.48C415.53 221.77 421.17 220.61 426.34 223.46C426.34 223.46 437.93 232.19 422.34 248.46C379.3 274.31 404.49 244.29 404.49 244.29C379.06 248.98 362.79 237.91 349.69 232.05C360.04 241.62 366.46 251.16 365.91 260.08C365.29 260.05 360.33 259.84 359.71 259.81C344.08 221.7 331.56 180.51 320 140.16C316.55 169.11 312.33 196.06 307.39 221.17C308.78 219.62 310.33 218.82 311.8 219.11C315.09 219.76 316.7 225.63 315.4 232.22C314.09 238.8 310.37 243.62 307.08 242.97C305.53 242.66 304.36 241.2 303.68 239.05C300.2 254.98 296.43 270.11 292.36 284.51C291.48 284.73 284.4 286.5 283.52 286.72C281.19 278.09 285.55 267.46 293.76 256C282.11 264.38 268.41 278.5 242.56 279.04C242.56 279.04 273.28 303.36 225.92 286.72C207.36 273.92 216.96 263.04 216.96 263.04C221.44 259.2 227.2 259.2 236.8 268.16C230.4 252.16 212.48 232.96 243.84 250.88C227.5 218.52 218.57 188 217.12 156.53C215.77 159.23 214.14 160.82 212.54 160.64C209.4 160.29 207.62 153.16 208.56 144.74C209.51 136.31 212.83 129.76 215.97 130.11C216.55 130.18 217.08 130.47 217.56 130.96C219.53 106.23 225.93 80.49 236.8 52.48C221.79 63.51 209.17 77.38 198.4 93.44C203.72 93.79 206.66 94.94 206.08 97.28C192.91 113.18 184.68 137.38 176.64 161.92C177.22 161.98 181.82 162.5 182.4 162.56C176.86 175.85 171.85 197.21 167.04 221.44C167.55 221.44 171.65 221.44 172.16 221.44C168.99 236.12 167.92 263.12 167.04 291.2C167.74 290.56 173.38 285.44 174.08 284.8C177.73 321.47 188.16 366.08 213.76 412.8C199.68 354.56 223.36 334.72 252.16 328.96C262.94 333.65 267.11 341.99 269.14 351.75C264.54 362.73 259.72 373.13 254.69 383C255.61 382.73 256.49 382.75 257.27 383.08C260.34 384.44 260.69 390.39 258.05 396.37C255.4 402.36 250.78 406.11 247.71 404.75C246.31 404.13 245.48 402.56 245.24 400.47C228.36 429.87 209.43 453.92 188.8 473.6C215.21 455.87 241.87 440.95 268.8 429.16C268.77 429.13 268.74 429.1 268.72 429.07C266.92 426.23 269.94 421.09 275.46 417.59C280.99 414.08 286.92 413.54 288.72 416.37C289.51 417.63 289.36 419.33 288.48 421.14C299.35 417.03 310.27 413.45 321.24 410.4C331.48 415.73 338.04 444.44 315.52 432C318.92 446.89 318.75 460.17 315.52 472.32C318.25 473.19 320.67 474.34 322.8 475.76C299.62 491.68 281.76 496.99 264.32 487.04C271.59 516.25 254.5 550.76 232.96 586.24C250.49 566.37 267.96 547.71 285.38 531.88C284.55 531.81 283.9 531.55 283.49 531.05C281.53 528.63 285.82 521.88 293.09 515.97C300.35 510.06 307.83 507.23 309.8 509.64C310.16 510.08 310.3 510.66 310.27 511.36C318 505.69 325.73 500.72 333.44 496.64C333.84 496.48 334.25 496.44 334.64 496.51C335.12 499.75 335.3 503.27 335.2 507.03C322.3 542.25 298.87 580.06 271.36 618.88C327.54 562.28 381.19 512.63 427.52 476.8C406.66 487.99 387.73 495.32 372.86 495.74C362.43 493.82 356.29 488.83 354.56 480.64C358.04 466.56 368 460.8 368 475.52C381.79 456.92 391.45 456.24 397.44 471.04C399.68 464.51 417.6 412.29 419.84 405.76C396.56 434.22 375.39 450.83 358.4 437.76C345.6 440.96 341.12 428.16 357.76 424.32C342.42 420.49 372.4 403.88 387.78 398.75C387.81 398.75 387.86 398.74 387.9 398.73C386.27 397.78 385.28 396.55 385.28 395.2C385.28 392.2 390.15 389.76 396.16 389.76C402.17 389.76 407.04 392.2 407.04 395.2C407.04 396.22 406.47 397.16 405.5 397.98C426.11 397.66 446.88 399.36 467.84 403.2C460.93 399.17 454.35 394.68 448.06 389.77C448.12 391.05 447.79 392.16 447.01 392.93C444.81 395.14 439.87 393.79 436 389.92C432.13 386.05 430.78 381.11 432.99 378.91C433.38 378.51 433.86 378.23 434.41 378.06C427.07 371.15 420.15 363.64 413.65 355.6C413.54 356.06 413.33 356.45 413.01 356.75C411.46 358.19 407.96 356.95 405.19 353.96C402.43 350.99 401.44 347.4 403 345.96C403.67 345.33 404.71 345.22 405.9 345.52C401.54 339.56 397.36 333.34 393.36 326.92C392.47 314.57 393.63 303.23 405.16 295.12C434.53 294.95 461.72 309.61 459.68 369.49C475.33 318.57 476.54 272.77 472.72 236.12C474.36 237.09 480.09 240.49 480.91 240.97C474.38 213.65 467.88 187.42 461.82 173.68ZM353.17 369.96C353.04 369.45 353.04 368.91 353.13 368.37C329.31 372.42 305.65 380.54 283.52 392.32C304.24 350.94 319.2 303.24 328.96 254.72C335.26 271.83 342.71 289.48 351.39 306.48C351.62 306.18 351.88 305.92 352.2 305.73C354.27 304.54 357.58 306.44 359.62 309.96C361.65 313.48 361.63 317.3 359.57 318.49C359.1 318.76 358.57 318.87 358 318.84C367.49 335.81 378.27 351.78 390.4 365.44C385.03 365.36 379.63 365.52 374.21 365.88C373.9 368.84 370.23 371.97 365.2 373.27C359.42 374.76 354.03 373.29 353.17 369.96Z" id="a2i5Me4Mcf"></path></defs><g><g><g><use xlink:href="#b2JXZCpiXG" opacity="1" fill="#300248" fill-opacity="1"></use><g><use xlink:href="#b2JXZCpiXG" opacity="1" fill-opacity="0" stroke="#000000" stroke-width="1" stroke-opacity="0"></use></g></g><g><use xlink:href="#a2i5Me4Mcf" opacity="1" fill="#7d07ed" fill-opacity="0.89"></use><g><use xlink:href="#a2i5Me4Mcf" opacity="1" fill-opacity="0" stroke="#000000" stroke-width="1" stroke-opacity="0"></use></g></g></g></g></svg>