<?xml version="1.0" encoding="UTF-8" standalone="no"?>
<!DOCTYPE svg PUBLIC "-//W3C//DTD SVG 1.1//EN" "http://www.w3.org/Graphics/SVG/1.1/DTD/svg11.dtd">
<svg version="1.1" xmlns="http://www.w3.org/2000/svg" xmlns:xlink="http://www.w3.org/1999/xlink" preserveAspectRatio="xMidYMid meet" viewBox="0 0 640 640" width="640" height="640"><defs><path d="M569 250.75L569 299.63L371.94 299.63L511.83 159.75L546.31 194.23L546.31 93.77L445.85 93.77L480.4 128.32L342.26 266.39L342.26 71.07L391.07 71.07L320 0L248.93 71.07L297.81 71.07L297.81 269.01L158.36 129.56L192.92 95L92.46 95L92.46 195.46L126.94 160.98L265.59 299.63L71.07 299.63L71.07 250.75L0 321.82L71.07 392.89L71.07 344.08L264.57 344.08L128.32 480.4L93.77 445.85L93.77 546.31L194.23 546.31L159.75 511.83L297.81 373.68L297.81 569L248.93 569L320 640L391.07 569L342.26 569L342.26 376.3L479.02 513.06L444.54 547.54L545.07 547.54L545.07 447.08L510.52 481.64L372.96 344.08L569 344.08L569 392.89L640 321.82L569 250.75Z" id="d6QJcVKCX"></path></defs><g><g><g><use xlink:href="#d6QJcVKCX" opacity="1" fill="#db0909" fill-opacity="1"></use><g><use xlink:href="#d6QJcVKCX" opacity="1" fill-opacity="0" stroke="#000000" stroke-width="1" stroke-opacity="0"></use></g></g></g></g></svg>