<?xml version="1.0" encoding="UTF-8" standalone="no"?>
<!DOCTYPE svg PUBLIC "-//W3C//DTD SVG 1.1//EN" "http://www.w3.org/Graphics/SVG/1.1/DTD/svg11.dtd">
<svg version="1.1" xmlns="http://www.w3.org/2000/svg" xmlns:xlink="http://www.w3.org/1999/xlink" preserveAspectRatio="xMidYMid meet" viewBox="0 0 640 640" width="640" height="640"><defs><path d="M614.35 317.08C614.35 476.51 483.93 605.95 323.28 605.95C162.63 605.95 32.21 476.51 32.21 317.08C32.21 157.65 162.63 28.21 323.28 28.21C483.93 28.21 614.35 157.65 614.35 317.08Z" id="a32yB1i91E"></path><path d="M23.17 320.26C23.17 484.74 156.54 618.11 321.02 618.11C485.5 618.11 618.88 484.74 618.88 320.26C618.88 155.78 485.5 22.4 321.02 22.4C156.54 22.4 23.17 155.78 23.17 320.26ZM40.51 320.26C40.51 165.31 166.14 39.74 321.02 39.74C475.9 39.74 601.54 165.31 601.54 320.26C601.54 475.2 475.97 600.77 321.02 600.77C166.08 600.77 40.51 475.2 40.51 320.26Z" id="a3jyoq15c"></path><path d="M248.51 63.17C136.7 94.91 54.85 197.76 54.85 319.74C54.85 464.32 169.86 581.95 313.34 586.37C313.34 556.38 313.34 316.45 313.34 286.46C248.83 282.18 197.82 228.54 197.82 163.01C197.82 121.98 217.79 85.7 248.51 63.17Z" id="bUiwjZplX"></path><path d="M445.31 162.94C445.31 228.48 394.3 282.18 329.79 286.4C329.79 316.38 329.79 556.26 329.79 586.24C473.28 581.89 588.29 464.19 588.29 319.62C588.29 197.76 506.43 94.91 394.62 63.1C425.34 85.63 445.31 121.98 445.31 162.94Z" id="iDrNGq37"></path><path d="M321.54 52.99C260.78 52.99 211.52 102.25 211.52 163.01C211.52 223.77 260.78 273.02 321.54 273.02C382.3 273.02 431.55 223.77 431.55 163.01C431.55 102.25 382.3 52.99 321.54 52.99Z" id="cEE6MRbDm"></path></defs><g><g><g><use xlink:href="#a32yB1i91E" opacity="1" fill="#6f0101" fill-opacity="1"></use></g><g><use xlink:href="#a3jyoq15c" opacity="1" fill="#a5a459" fill-opacity="1"></use><g><use xlink:href="#a3jyoq15c" opacity="1" fill-opacity="0" stroke="#000000" stroke-width="1" stroke-opacity="0"></use></g></g><g><use xlink:href="#bUiwjZplX" opacity="1" fill="#a5a459" fill-opacity="1"></use><g><use xlink:href="#bUiwjZplX" opacity="1" fill-opacity="0" stroke="#000000" stroke-width="1" stroke-opacity="0"></use></g></g><g><use xlink:href="#iDrNGq37" opacity="1" fill="#a5a459" fill-opacity="1"></use><g><use xlink:href="#iDrNGq37" opacity="1" fill-opacity="0" stroke="#000000" stroke-width="1" stroke-opacity="0"></use></g></g><g><use xlink:href="#cEE6MRbDm" opacity="1" fill="#a5a459" fill-opacity="1"></use><g><use xlink:href="#cEE6MRbDm" opacity="1" fill-opacity="0" stroke="#000000" stroke-width="1" stroke-opacity="0"></use></g></g></g></g></svg>