<?xml version="1.0" encoding="UTF-8" standalone="no"?>
<!DOCTYPE svg PUBLIC "-//W3C//DTD SVG 1.1//EN" "http://www.w3.org/Graphics/SVG/1.1/DTD/svg11.dtd">
<svg version="1.1" xmlns="http://www.w3.org/2000/svg" xmlns:xlink="http://www.w3.org/1999/xlink" preserveAspectRatio="xMidYMid meet" viewBox="0 0 640 640" width="640" height="640"><defs><path d="M247.75 300.99C247.05 311.45 246.43 321.83 245.74 332.5C246.22 332.22 246.36 332.15 246.5 332.01C250.38 327.65 262.08 315.53 262.01 312.35C261.94 311.1 262.01 309.86 261.94 308.68C261.8 305.08 261.66 301.55 261.53 297.95C261.46 296.56 261.94 295.87 262.84 295.66C263.6 295.52 264.23 296.01 264.57 297.39C265.4 300.23 266.16 303.14 266.93 306.05C267.06 306.46 267.13 306.81 267.34 307.64C268.03 306.81 268.59 306.32 269 305.7C270.87 302.86 272.67 299.89 274.68 297.05C276.14 295.04 277.17 292.96 276.62 290.4C276.55 290.19 276.62 289.98 276.62 289.85C276.83 287.63 280.15 285.28 281.74 287.63C282.16 288.25 282.23 289.01 282.09 289.71C281.95 290.26 281.81 290.75 281.54 291.23C280.91 292.48 280.22 293.72 279.39 294.97C276.34 299.54 273.3 304.18 270.18 308.75C266.16 314.7 262.15 320.59 258.2 326.54C256.19 329.59 256.33 330.01 259.31 331.87C264.92 335.41 270.53 338.94 276.14 342.4C276.55 342.68 276.97 342.88 277.52 343.23C277.87 342.4 278.14 341.78 278.42 341.15C286.18 321.28 293.93 301.41 301.75 281.54C302.1 280.64 302.24 279.87 302.1 279.11C301.69 277.45 291.37 267.41 288.53 264.43C288.32 264.16 286.66 262 286.45 261.73C281.95 263.4 274.47 266.86 269.97 268.52C262.98 271.15 255.99 273.99 248.44 274.89C245.05 275.3 241.65 275.72 238.19 275.58C230.44 275.3 224.14 272.12 219.29 266.16C217.83 264.43 216.52 262.49 215.69 260.42C212.78 252.8 212.36 245.18 216.03 237.64C216.45 236.74 216.8 235.84 217.28 235.01C218.18 233.48 219.01 231.96 220.12 230.64C222.89 227.25 225.73 224 228.64 220.74C229.67 219.57 230.78 218.46 232.03 217.56C235.42 215.2 239.09 213.19 243.04 211.81C243.04 210.77 243.04 202.46 243.04 201.42C242.14 201.42 241.38 201.42 240.61 201.42C230.37 201.7 220.12 201.63 209.87 201.98C203.36 202.19 196.92 202.19 190.41 202.32C178.71 202.46 166.87 202.67 155.1 202.81C148.94 202.88 142.78 202.95 136.61 203.09C124.63 203.29 112.59 203.43 100.61 203.64C94.31 203.71 88.01 203.85 81.71 203.92C69.8 204.05 57.96 204.19 46.05 204.33C32.34 204.47 18.56 204.61 4.78 204.82C3.25 204.82 1.73 205.02 0.21 205.09C0.14 205.3 0.14 205.37 0 205.58C0.28 205.92 0.48 206.27 0.76 206.62C2.22 208.42 3.74 210.22 5.19 212.02C6.09 213.13 6.79 214.51 7.82 215.48C11.56 218.94 14.82 222.82 17.45 227.11C19.11 229.88 20.91 231.2 23.82 230.99C28.11 230.64 32.34 230.44 36.63 230.23C46.25 229.81 55.81 229.4 65.43 228.98C76.93 228.43 88.42 227.87 99.85 227.39C105.66 227.11 111.55 226.84 117.36 226.56C127.47 226.07 137.58 225.59 147.69 225.1C154.62 224.76 161.54 224.48 168.53 224.14C177.74 223.72 186.95 223.23 196.16 222.82C196.58 222.82 196.99 222.82 197.41 222.82C196.99 224.07 196.65 225.17 196.16 226.49C140.35 231.47 84.47 235.91 28.39 240.75C28.87 241.38 29.15 241.72 29.43 242.07C32.61 245.32 35.8 248.58 38.91 251.83C42.31 255.36 45.7 258.96 49.09 262.56C50.62 264.23 52.28 265.13 54.56 264.36C54.84 264.23 55.19 264.16 55.53 264.09C75.89 260.35 96.25 256.54 116.6 252.8C141.88 248.16 167.15 243.45 192.42 238.81C193.05 238.68 193.6 238.68 194.22 238.61C194.29 238.74 194.36 238.88 194.43 239.09C194.01 239.51 193.67 240.06 193.25 240.34C192.77 240.68 192.15 240.75 191.59 240.96C185.91 242.55 180.24 244.08 174.56 245.67C161.75 249.2 148.94 252.8 136.13 256.33C130.87 257.79 125.6 259.1 120.34 260.56C115.49 261.87 110.72 263.26 105.94 264.64C105.66 264.71 105.45 264.71 105.18 264.78C103.45 265.2 101.65 265.61 99.92 266.03C97.15 266.72 94.45 267.55 91.68 268.24C89.6 268.8 87.52 269.14 85.44 269.63C84.54 269.83 83.64 270.25 82.74 270.53C80.39 271.22 77.97 271.7 75.68 272.6C72.57 273.85 69.24 274.54 66.06 275.58C65.36 275.79 64.6 276.07 63.29 276.48C64.05 276.97 64.53 277.24 64.88 277.52C71.87 283.75 78.94 290.05 85.93 296.35C86.55 296.91 87.18 297.53 87.8 298.15C89.11 299.54 90.57 299.95 92.3 299.12C93.2 298.71 94.1 298.43 95 298.09C126.99 285.62 158.91 273.09 190.9 260.63C191.45 260.42 192.08 260.21 192.7 260C192.98 262.22 192.91 262.7 191.18 263.74C189.03 264.99 186.81 266.03 184.67 267.2C163.62 278.49 142.64 289.85 121.59 301.13C117.02 303.62 112.38 305.98 107.81 308.4C106.63 309.03 105.39 309.58 104.35 310.76C112.52 317.68 120.48 324.47 128.65 331.46C140.35 322.74 151.5 313.18 163.06 304.11C174.56 295.04 185.98 285.83 197.55 276.62C198.03 277.31 198.45 277.87 198.86 278.42C198.45 278.91 198.1 279.32 197.75 279.74C188.34 289.5 178.85 299.26 169.43 309.03C160.36 318.44 151.22 327.93 142.15 337.41C141.67 337.9 141.25 338.45 140.77 338.94C147.76 343.37 154.55 347.73 161.33 352.02C163.13 353.13 163.2 353.13 164.45 351.47C164.52 351.4 164.59 351.26 164.66 351.19C175.6 337.07 186.47 322.94 197.41 308.82C201.15 303.97 204.96 299.05 208.76 294.21C209.32 293.52 209.73 292.61 211.19 293.1C210.84 293.93 210.56 294.76 210.08 295.52C203.29 307.29 196.51 319 189.65 330.7C185.15 338.38 180.65 346.07 176.22 353.76C175.74 354.59 175.04 355.42 175.18 356.52C175.39 356.59 175.53 356.66 175.6 356.73C182.73 357.77 189.86 358.88 196.99 359.85C198.17 359.99 199.42 359.99 200.59 360.06C201.22 358.67 201.7 357.49 202.19 356.25C209.39 339.77 216.52 323.29 223.72 306.81C224.55 304.94 225.31 303.14 226.21 301.34C227.32 299.12 228.7 298.78 230.99 300.3C230.78 301.13 230.57 302.03 230.3 302.86C224.2 321.07 218.11 339.28 212.02 357.49C211.88 357.98 211.81 358.46 211.67 359.02C211.95 358.95 212.09 358.88 212.23 358.81C219.63 353.55 227.04 348.29 234.45 343.02C235.84 342.05 236.67 340.67 237.01 339.01C237.5 336.72 237.91 334.44 238.47 332.15C240.27 323.98 242.07 315.81 243.94 307.64C244.22 305.84 244.63 304.18 245.12 302.45C245.46 301.34 246.22 300.79 247.75 300.99Z" id="nTkcwQfjf"></path><path d="M278.77 400.08C277.66 398.49 277.52 396.82 278.21 395.09C278.49 394.4 278.84 393.71 279.25 393.02C282.78 386.78 286.31 380.62 289.85 374.39C290.12 373.97 290.26 373.49 290.61 372.8C286.45 369.54 282.37 366.29 278.14 362.96C277.59 364.07 277.17 364.9 276.76 365.8C273.3 373.07 269.9 380.34 266.3 387.55C263.88 392.32 264.78 391.91 258.83 391.77C253.7 391.63 248.58 391.49 243.45 391.28C242.9 391.28 242.35 391.35 241.72 391.42C242.83 398.55 243.94 405.55 245.05 412.47C245.6 412.13 245.81 411.71 246.02 411.3C247.54 408.59 249.13 405.89 250.65 403.19C251.07 402.43 251.62 401.81 252.59 401.81C254.74 401.81 256.82 401.81 259.17 401.81C258.89 402.43 258.69 402.85 258.48 403.19C254.46 410.53 250.52 417.94 246.5 425.28C246.02 426.11 245.6 427.01 245.18 427.91C244.15 430.13 244.56 432.21 246.29 433.8C247.47 434.91 248.85 435.74 250.24 436.57C254.32 438.92 258.83 438.37 263.6 438.51C262.84 437.68 262.36 436.98 261.8 436.43C260.49 435.18 259.1 434.01 257.86 432.62C255.57 430.13 255.43 428.47 257.16 425.63C259.45 421.96 261.73 418.22 264.02 414.55C265.26 412.61 266.51 410.6 267.76 408.59C268.66 409.29 269.42 409.91 270.32 410.46C271.36 411.16 271.77 411.99 271.29 413.3C269.97 417.11 268.66 420.92 267.34 424.73C267.2 425.14 267.13 425.49 266.93 426.32C267.83 425.7 268.45 425.35 269 424.94C273.57 421.68 278.07 418.43 282.57 415.17C282.92 414.9 283.34 414.69 283.68 414.34C285.14 413.1 285.41 412.2 284.79 410.39C284.58 409.36 284.1 408.25 283.48 407.28C281.95 404.86 280.43 402.43 278.77 400.08Z" id="dBDPjp6zT"></path><path d="M331.74 269.42C331.87 269.77 332.15 270.18 332.43 270.67C332.98 270.18 333.33 269.83 333.68 269.49C337.14 265.68 340.6 261.94 344.06 258.13C346.55 255.43 349.05 252.8 351.54 250.17C352.79 248.85 353.34 247.33 352.99 245.53C352.16 240.82 349.88 236.94 346.28 233.76C345.58 233.21 344.75 232.79 344.06 232.31C342.68 233.34 341.57 234.24 340.39 235.08C334.78 238.95 329.17 242.83 323.57 246.71C322.18 247.68 322.11 247.82 322.74 249.41C322.87 249.69 323.01 250.03 323.08 250.31C325.99 256.68 328.83 263.05 331.74 269.42Z" id="cQ5TtFxGw"></path><path d="M284.1 243.38C287.63 236.25 291.99 230.09 300.23 227.94C302.72 227.32 303.07 226.28 302.45 223.44C299.68 223.23 296.91 222.96 294.14 222.75C286.94 222.27 279.81 221.92 272.6 221.43C268.93 221.23 265.26 221.02 261.53 220.74C260.56 220.67 260 221.02 259.59 221.92C258.34 224.55 257.02 227.18 255.78 229.81C255.64 230.09 255.64 230.44 255.5 230.78C264.5 235.91 273.44 241.03 282.51 246.15C282.85 246.08 282.99 246.02 282.99 245.88C283.34 245.05 283.68 244.22 284.1 243.38ZM266.65 229.95C266.58 228.29 268.17 226.49 269.7 226.56C271.57 226.56 273.64 228.43 273.57 229.95C273.5 231.47 271.77 233.27 270.32 233.27C268.52 233.27 266.72 231.61 266.65 229.95Z" id="b19fttCmIa"></path><path d="M285.83 249.13C287.63 251.83 303.9 271.29 305.08 272.12C306.53 269.83 314.56 249.13 314.84 247.12C314.77 247.05 314.7 246.92 314.63 246.85C309.99 243.11 305.36 239.3 300.72 235.56C299.82 234.94 298.92 234.45 298.22 233.9C292.75 236.67 287.42 243.25 285.83 249.13Z" id="b8oz7oDDzu"></path><path d="M341.15 226.97C344.41 227.39 347.04 228.98 349.25 231.27C350.99 233 352.51 234.94 354.03 236.88C355.35 238.61 356.04 240.61 356.25 242.76C356.52 245.18 357.01 247.61 357.43 250.03C361.37 249.55 363.1 248.37 364.49 245.05C365.53 242.55 366.84 240.27 368.57 238.19C370.58 235.77 372.87 233.9 375.91 233C376.81 232.72 377.71 232.72 378.54 232.37C378.96 232.24 379.44 231.68 379.44 231.41C379.44 229.19 379.24 227.04 379.1 224.9C373.42 224 338.59 221.3 336.93 221.71C336.79 222.54 336.58 223.44 336.44 224.34C336.31 225.31 336.65 225.87 337.55 226.14C338.73 226.42 339.91 226.84 341.15 226.97Z" id="ckoIbGsgp"></path><path d="M368.37 244.49C372.94 245.05 377.23 245.6 381.45 246.15C383.11 246.36 383.11 246.36 383.39 247.95C383.94 250.72 384.64 253.49 386.09 256.54C389.14 251.97 392.39 248.02 394.4 243.31C394.54 242.9 394.68 242.48 394.75 242C395.02 239.85 394.4 238.88 392.32 238.26C389.83 237.57 387.34 236.81 384.84 236.18C383.39 235.84 381.94 235.56 380.48 235.21C379.51 235.01 378.75 235.28 377.99 235.91C375.22 238.4 372.24 240.82 369.33 243.31C369.06 243.59 368.78 243.94 368.37 244.49Z" id="ihUg4aS9r"></path><path d="M243.66 246.57C246.64 249.82 249.62 253.08 252.59 256.26C252.8 256.47 253.08 256.68 253.42 256.96C253.42 255.5 253.56 254.26 253.42 253.01C253.01 249.62 254.53 247.68 257.51 246.36C260.49 245.05 263.4 243.59 266.3 242.21C266.86 241.93 267.41 241.65 268.24 241.17C264.57 239.23 261.18 237.5 257.86 235.63C257.16 235.21 256.61 235.56 256.06 235.84C251.97 237.71 247.95 239.51 243.87 241.38C241.24 242.76 241.03 243.73 242.97 245.88C243.18 246.08 243.38 246.36 243.66 246.57Z" id="awr4dnfJW"></path><path d="M351.54 395.92C347.87 387.96 344.13 380.07 340.46 372.1C340.32 371.9 340.32 371.62 340.18 371.2C340.46 370.86 340.81 370.51 341.15 370.17C346 365.94 350.85 361.79 355.76 357.56C358.67 355.07 358.81 354.59 357.43 351.12C347.32 325.44 337.21 299.68 327.17 273.99C324.67 267.69 322.25 261.46 319.76 255.16C319.76 255.09 319.69 255.02 319.69 254.95C319.65 254.97 319.31 255.13 319.27 255.16C316.78 261.46 314.36 267.69 311.86 273.99C301.75 299.68 291.65 325.44 281.61 351.12C280.22 354.66 280.36 355.07 283.27 357.56C288.18 361.72 293.03 365.94 297.88 370.17C298.22 370.51 298.57 370.86 298.85 371.2C298.71 371.62 298.64 371.83 298.57 372.1C294.9 380.07 291.16 387.96 287.49 395.92C287.14 396.69 286.87 397.45 286.52 398.28C286.18 399.04 286.31 399.8 286.73 400.49C287.35 401.53 290.68 404.86 291.99 405.62C292.27 404.99 292.55 404.44 292.82 403.89C295.73 397.03 298.71 390.18 301.62 383.32C302.1 382.28 302.45 381.11 303.56 380.55C305.42 381.52 305.56 381.94 304.73 384.15C302.17 391.42 299.61 398.69 296.98 405.96C296.42 407.56 296.42 409.01 297.53 410.33C298.99 412.06 300.44 413.79 301.82 415.52C303.14 415.24 303.28 414.2 303.62 413.3C306.12 406.1 308.61 398.83 311.1 391.63C311.59 390.11 312.28 388.65 312.83 387.13C314.22 388.45 314.29 388.51 313.87 389.9C313.18 392.67 312.49 395.44 311.66 398.14C309.86 404.23 308.06 410.33 306.26 416.42C305.7 418.29 305.98 419.95 307.22 421.47C309.65 424.59 316.36 430.82 319.27 433.52C319.27 433.56 319.27 433.83 319.27 433.87C319.34 433.8 319.41 433.73 319.48 433.73C319.55 433.8 319.62 433.87 319.69 433.87C319.69 433.83 319.69 433.56 319.69 433.52C322.53 430.82 329.31 424.59 331.74 421.47C332.98 419.88 333.26 418.29 332.71 416.42C330.91 410.33 329.04 404.23 327.3 398.14C326.54 395.37 325.78 392.6 325.09 389.9C324.74 388.51 324.74 388.45 326.13 387.13C326.75 388.65 327.37 390.11 327.86 391.63C330.35 398.83 332.84 406.1 335.34 413.3C335.61 414.2 335.75 415.24 337.14 415.52C338.52 413.79 339.98 412.06 341.43 410.33C342.54 409.01 342.54 407.56 341.98 405.96C339.35 398.69 336.79 391.42 334.23 384.15C333.47 381.94 333.61 381.52 335.41 380.55C336.58 381.11 336.93 382.21 337.35 383.32C340.32 390.18 343.23 397.03 346.14 403.89C346.42 404.51 346.69 405.06 346.97 405.62C348.29 404.79 351.61 401.53 352.23 400.49C352.72 399.8 352.92 399.11 352.51 398.28C352.16 397.52 351.89 396.69 351.54 395.92Z" id="a8CYAW84Y"></path><path d="M385.95 403.26C387.48 405.96 389.07 408.66 390.59 411.36C390.8 411.78 391.01 412.13 391.56 412.54C392.67 405.62 393.78 398.62 394.88 391.49C394.26 391.42 393.71 391.35 393.15 391.35C388.03 391.49 382.91 391.63 377.78 391.84C371.83 391.98 372.73 392.39 370.3 387.61C366.7 380.41 363.31 373.14 359.85 365.87C359.43 364.97 359.02 364.14 358.46 363.03C354.24 366.36 350.15 369.61 346 372.87C346.35 373.49 346.48 373.97 346.76 374.46C350.29 380.69 353.82 386.85 357.36 393.08C357.77 393.78 358.12 394.47 358.39 395.16C359.09 396.89 358.95 398.55 357.84 400.15C356.25 402.5 354.66 404.92 353.13 407.35C352.51 408.32 352.02 409.43 351.61 410.53C350.99 412.26 351.26 413.23 352.72 414.48C353.06 414.76 353.48 415.03 353.82 415.31C358.33 418.57 362.9 421.82 367.4 425.07C367.95 425.49 368.57 425.84 369.47 426.46C369.27 425.7 369.2 425.28 369.06 424.87C367.74 421.06 366.5 417.25 365.11 413.44C364.7 412.2 365.04 411.36 366.08 410.6C366.91 410.05 367.74 409.36 368.64 408.73C369.89 410.74 371.13 412.68 372.38 414.69C374.67 418.36 376.95 422.1 379.24 425.77C380.97 428.61 380.9 430.27 378.54 432.76C377.3 434.08 375.91 435.25 374.6 436.57C374.04 437.12 373.49 437.81 372.8 438.65C377.57 438.51 382.08 439.06 386.16 436.71C387.55 435.88 388.93 435.04 390.11 433.94C391.84 432.34 392.25 430.27 391.21 428.05C390.8 427.15 390.38 426.32 389.9 425.42C385.88 418.08 381.94 410.67 377.92 403.33C377.71 402.92 377.51 402.57 377.23 401.95C379.79 401.88 381.87 401.88 384.01 401.88C384.98 401.88 385.54 402.5 385.95 403.26Z" id="aJZvyflhN"></path><path d="M635.22 204.82C621.44 204.68 607.73 204.54 593.95 204.33C582.04 204.19 570.2 204.05 558.29 203.85C551.99 203.78 545.69 203.64 539.39 203.57C527.41 203.36 515.37 203.22 503.39 203.02C497.22 202.95 491.06 202.88 484.9 202.74C473.06 202.6 461.29 202.46 449.45 202.25C442.94 202.19 436.5 202.12 429.99 201.91C419.74 201.56 409.49 201.56 399.25 201.35C398.49 201.35 397.72 201.35 396.82 201.35C396.82 202.37 396.82 210.52 396.82 211.53C400.77 212.92 404.44 214.93 407.83 217.28C409.08 218.18 410.19 219.29 411.23 220.47C414.13 223.72 416.97 227.04 419.74 230.37C420.85 231.68 421.68 233.27 422.58 234.73C423.07 235.56 423.41 236.46 423.83 237.36C427.5 244.91 427.15 252.59 424.17 260.14C423.34 262.22 422.03 264.16 420.57 265.89C415.73 271.84 409.43 275.03 401.67 275.3C398.21 275.44 394.82 275.03 391.42 274.61C383.88 273.64 376.88 270.87 369.89 268.24C365.39 266.51 357.91 263.12 353.41 261.46C353.2 261.73 351.54 263.89 351.33 264.16C348.49 267.13 338.11 277.17 337.76 278.84C337.62 279.53 337.76 280.36 338.11 281.26C345.93 301.13 353.69 321 361.44 340.88C361.72 341.5 362 342.19 362.34 342.95C362.9 342.68 363.31 342.4 363.73 342.12C369.33 338.59 374.94 335.13 380.55 331.6C383.53 329.73 383.67 329.31 381.66 326.27C377.71 320.31 373.7 314.43 369.68 308.47C366.63 303.9 363.52 299.33 360.47 294.69C359.71 293.52 359.02 292.27 358.33 290.95C358.12 290.47 357.91 289.98 357.77 289.43C357.63 288.74 357.7 287.98 358.12 287.35C359.71 285 363.03 287.35 363.24 289.57C363.24 289.78 363.31 289.98 363.24 290.12C362.69 292.68 363.73 294.76 365.18 296.77C367.19 299.61 368.92 302.52 370.86 305.42C371.27 306.05 371.83 306.53 372.52 307.36C372.73 306.6 372.87 306.19 372.94 305.77C373.7 302.86 374.46 300.02 375.29 297.12C375.64 295.8 376.26 295.25 377.02 295.38C377.92 295.59 378.41 296.28 378.34 297.67C378.2 301.27 378.06 304.8 377.92 308.4C377.85 309.65 377.92 310.89 377.85 312.07C377.78 315.19 389.48 327.3 393.36 331.74C393.5 331.94 393.64 331.94 394.12 332.22C393.43 321.63 392.81 311.17 392.12 300.72C393.57 300.51 394.4 301.06 394.75 302.17C395.23 303.83 395.65 305.56 395.99 307.22C397.79 315.4 399.66 323.57 401.46 331.74C401.95 334.02 402.43 336.31 402.92 338.59C403.26 340.25 404.09 341.57 405.48 342.61C412.89 347.87 420.3 353.13 427.71 358.39C427.77 358.46 427.91 358.46 428.26 358.6C428.12 358.05 428.05 357.56 427.91 357.08C421.82 338.87 415.73 320.66 409.63 302.45C409.36 301.62 409.15 300.72 408.94 299.89C411.23 298.43 412.61 298.71 413.72 300.92C414.62 302.72 415.45 304.59 416.21 306.39C423.41 322.87 430.54 339.35 437.75 355.83C438.23 357.01 438.78 358.19 439.34 359.64C440.51 359.57 441.76 359.64 442.94 359.43C450.07 358.39 457.2 357.36 464.33 356.32C464.47 356.32 464.54 356.25 464.75 356.11C464.89 355 464.2 354.17 463.71 353.34C459.28 345.65 454.78 337.97 450.28 330.28C443.49 318.58 436.64 306.81 429.85 295.11C429.44 294.35 429.16 293.52 428.74 292.68C430.2 292.2 430.61 293.1 431.17 293.79C434.98 298.64 438.78 303.49 442.52 308.4C453.46 322.53 464.33 336.65 475.27 350.78C475.34 350.85 475.41 350.99 475.48 351.05C476.73 352.65 476.8 352.72 478.6 351.61C485.38 347.32 492.17 342.95 499.16 338.52C498.68 337.97 498.26 337.48 497.78 337C488.71 327.51 479.64 318.1 470.5 308.61C461.08 298.85 451.66 289.08 442.18 279.32C441.83 278.97 441.48 278.56 441.07 278C441.48 277.45 441.9 276.9 442.38 276.2C453.95 285.41 465.37 294.62 476.87 303.69C488.36 312.76 499.51 322.32 511.28 331.04C519.45 324.05 527.48 317.26 535.58 310.34C534.55 309.09 533.3 308.61 532.12 307.99C527.55 305.56 522.91 303.14 518.34 300.72C497.29 289.43 476.31 278.07 455.26 266.79C453.12 265.61 450.83 264.57 448.75 263.33C447.02 262.29 446.89 261.8 447.23 259.59C447.85 259.79 448.48 260 449.03 260.21C481.02 272.67 512.94 285.21 544.93 297.67C545.83 298.02 546.8 298.29 547.63 298.71C549.36 299.54 550.82 299.12 552.13 297.74C552.76 297.12 553.38 296.49 554 295.94C561 289.64 567.99 283.41 575.05 277.1C575.4 276.76 575.88 276.55 576.64 276.07C575.33 275.65 574.64 275.44 573.87 275.17C570.69 274.13 567.43 273.44 564.25 272.19C561.96 271.29 559.54 270.8 557.19 270.11C556.29 269.83 555.39 269.42 554.49 269.21C552.41 268.73 550.33 268.31 548.25 267.83C545.49 267.13 542.78 266.3 540.02 265.61C538.28 265.13 536.48 264.78 534.75 264.36C534.48 264.3 534.27 264.3 533.99 264.23C529.21 262.84 524.37 261.46 519.59 260.14C514.33 258.69 509.06 257.37 503.8 255.92C490.99 252.39 478.18 248.79 465.37 245.25C459.69 243.66 454.02 242.14 448.34 240.55C447.79 240.41 447.16 240.27 446.68 239.92C446.19 239.58 445.85 239.09 445.5 238.68C445.57 238.54 445.64 238.4 445.71 238.19C446.33 238.26 446.89 238.26 447.51 238.4C472.78 243.04 498.05 247.75 523.33 252.39C543.68 256.12 564.04 259.93 584.4 263.67C584.75 263.74 585.02 263.81 585.37 263.95C587.58 264.78 589.25 263.81 590.84 262.15C594.23 258.55 597.62 254.95 601.02 251.42C604.13 248.16 607.39 244.91 610.5 241.65C610.78 241.38 611.06 240.96 611.54 240.34C555.46 235.49 499.58 231.06 443.77 226C443.35 224.69 443.01 223.65 442.52 222.33C442.94 222.33 443.35 222.33 443.77 222.33C452.98 222.75 462.19 223.23 471.4 223.65C478.32 224 485.25 224.27 492.24 224.62C502.35 225.1 512.46 225.59 522.57 226.07C528.38 226.35 534.27 226.63 540.08 226.9C551.58 227.46 563.07 228.01 574.5 228.5C584.12 228.91 593.68 229.33 603.3 229.74C607.59 229.95 611.89 230.16 616.11 230.51C618.95 230.78 620.75 229.47 622.48 226.63C625.11 222.27 628.37 218.46 632.11 215C633.21 214.03 633.84 212.64 634.74 211.53C636.19 209.73 637.65 207.93 639.17 206.13C639.45 205.79 639.65 205.44 639.93 205.09C639.86 205.37 639.86 205.3 639.79 205.09C638.27 205.02 636.75 204.82 635.22 204.82Z" id="aSMqliLiu"></path></defs><g><g><g><use xlink:href="#nTkcwQfjf" opacity="1" fill="#ffffff" fill-opacity="1"></use><g><use xlink:href="#nTkcwQfjf" opacity="1" fill-opacity="0" stroke="#000000" stroke-width="1" stroke-opacity="0"></use></g></g><g><use xlink:href="#dBDPjp6zT" opacity="1" fill="#ffffff" fill-opacity="1"></use><g><use xlink:href="#dBDPjp6zT" opacity="1" fill-opacity="0" stroke="#000000" stroke-width="1" stroke-opacity="0"></use></g></g><g><use xlink:href="#cQ5TtFxGw" opacity="1" fill="#ffffff" fill-opacity="1"></use><g><use xlink:href="#cQ5TtFxGw" opacity="1" fill-opacity="0" stroke="#000000" stroke-width="1" stroke-opacity="0"></use></g></g><g><use xlink:href="#b19fttCmIa" opacity="1" fill="#ffffff" fill-opacity="1"></use><g><use xlink:href="#b19fttCmIa" opacity="1" fill-opacity="0" stroke="#000000" stroke-width="1" stroke-opacity="0"></use></g></g><g><use xlink:href="#b8oz7oDDzu" opacity="1" fill="#ffffff" fill-opacity="1"></use><g><use xlink:href="#b8oz7oDDzu" opacity="1" fill-opacity="0" stroke="#000000" stroke-width="1" stroke-opacity="0"></use></g></g><g><use xlink:href="#ckoIbGsgp" opacity="1" fill="#ffffff" fill-opacity="1"></use><g><use xlink:href="#ckoIbGsgp" opacity="1" fill-opacity="0" stroke="#000000" stroke-width="1" stroke-opacity="0"></use></g></g><g><use xlink:href="#ihUg4aS9r" opacity="1" fill="#ffffff" fill-opacity="1"></use><g><use xlink:href="#ihUg4aS9r" opacity="1" fill-opacity="0" stroke="#000000" stroke-width="1" stroke-opacity="0"></use></g></g><g><use xlink:href="#awr4dnfJW" opacity="1" fill="#ffffff" fill-opacity="1"></use><g><use xlink:href="#awr4dnfJW" opacity="1" fill-opacity="0" stroke="#000000" stroke-width="1" stroke-opacity="0"></use></g></g><g><use xlink:href="#a8CYAW84Y" opacity="1" fill="#ffffff" fill-opacity="1"></use><g><use xlink:href="#a8CYAW84Y" opacity="1" fill-opacity="0" stroke="#000000" stroke-width="1" stroke-opacity="0"></use></g></g><g><use xlink:href="#aJZvyflhN" opacity="1" fill="#ffffff" fill-opacity="1"></use><g><use xlink:href="#aJZvyflhN" opacity="1" fill-opacity="0" stroke="#000000" stroke-width="1" stroke-opacity="0"></use></g></g><g><use xlink:href="#aSMqliLiu" opacity="1" fill="#ffffff" fill-opacity="1"></use><g><use xlink:href="#aSMqliLiu" opacity="1" fill-opacity="0" stroke="#000000" stroke-width="1" stroke-opacity="0"></use></g></g></g></g></svg>